<mxfile host="app.diagrams.net" modified="2024-03-18T16:19:49.593Z" agent="Mozilla/5.0 (Windows NT 10.0; Win64; x64) AppleWebKit/537.36 (KHTML, like Gecko) Chrome/121.0.0.0 Safari/537.36" etag="6y9IfJVpEnrVMke1y7Ax" version="24.0.7" type="github">
  <diagram name="Trang-1" id="qW0-KqEIr604PZfySBiq">
    <mxGraphModel dx="1158" dy="646" grid="1" gridSize="10" guides="1" tooltips="1" connect="1" arrows="1" fold="1" page="1" pageScale="1" pageWidth="3300" pageHeight="4681" math="0" shadow="0">
      <root>
        <mxCell id="0" />
        <mxCell id="1" parent="0" />
        <mxCell id="SVlMZ-5KKAiCH5u2WM6x-1" value="Admin&lt;div&gt;&lt;br&gt;&lt;/div&gt;" style="shape=umlActor;verticalLabelPosition=bottom;verticalAlign=top;html=1;outlineConnect=0;" vertex="1" parent="1">
          <mxGeometry x="750" y="760" width="30" height="60" as="geometry" />
        </mxCell>
        <mxCell id="SVlMZ-5KKAiCH5u2WM6x-2" value="Guest" style="shape=umlActor;verticalLabelPosition=bottom;verticalAlign=top;html=1;outlineConnect=0;" vertex="1" parent="1">
          <mxGeometry x="350" y="660" width="30" height="60" as="geometry" />
        </mxCell>
        <mxCell id="SVlMZ-5KKAiCH5u2WM6x-5" value="User" style="shape=umlActor;verticalLabelPosition=bottom;verticalAlign=top;html=1;outlineConnect=0;" vertex="1" parent="1">
          <mxGeometry x="295" y="780" width="30" height="60" as="geometry" />
        </mxCell>
        <mxCell id="SVlMZ-5KKAiCH5u2WM6x-11" value="View book infomation&amp;nbsp;" style="ellipse;whiteSpace=wrap;html=1;" vertex="1" parent="1">
          <mxGeometry x="502.5" y="780" width="100" height="40" as="geometry" />
        </mxCell>
        <mxCell id="SVlMZ-5KKAiCH5u2WM6x-13" value="Login" style="ellipse;whiteSpace=wrap;html=1;" vertex="1" parent="1">
          <mxGeometry x="515" y="950" width="70" height="50" as="geometry" />
        </mxCell>
        <mxCell id="SVlMZ-5KKAiCH5u2WM6x-14" value="Register" style="ellipse;whiteSpace=wrap;html=1;" vertex="1" parent="1">
          <mxGeometry x="500" y="600" width="100" height="55" as="geometry" />
        </mxCell>
        <mxCell id="SVlMZ-5KKAiCH5u2WM6x-15" value="Manage user" style="ellipse;whiteSpace=wrap;html=1;" vertex="1" parent="1">
          <mxGeometry x="800" y="870" width="100" height="50" as="geometry" />
        </mxCell>
        <mxCell id="SVlMZ-5KKAiCH5u2WM6x-16" value="Manage book" style="ellipse;whiteSpace=wrap;html=1;" vertex="1" parent="1">
          <mxGeometry x="770" y="680" width="100" height="60" as="geometry" />
        </mxCell>
        <mxCell id="SVlMZ-5KKAiCH5u2WM6x-17" value="Search book" style="ellipse;whiteSpace=wrap;html=1;" vertex="1" parent="1">
          <mxGeometry x="510" y="660" width="90" height="50" as="geometry" />
        </mxCell>
        <mxCell id="SVlMZ-5KKAiCH5u2WM6x-18" value="Sell book" style="ellipse;whiteSpace=wrap;html=1;" vertex="1" parent="1">
          <mxGeometry x="20" y="830" width="90" height="40" as="geometry" />
        </mxCell>
        <mxCell id="SVlMZ-5KKAiCH5u2WM6x-19" value="Exchange book" style="ellipse;whiteSpace=wrap;html=1;" vertex="1" parent="1">
          <mxGeometry x="160" y="770" width="90" height="40" as="geometry" />
        </mxCell>
        <mxCell id="SVlMZ-5KKAiCH5u2WM6x-20" value="Logout" style="ellipse;whiteSpace=wrap;html=1;" vertex="1" parent="1">
          <mxGeometry x="512.5" y="1020" width="80" height="40" as="geometry" />
        </mxCell>
        <mxCell id="SVlMZ-5KKAiCH5u2WM6x-21" value="Update information&amp;nbsp;" style="ellipse;whiteSpace=wrap;html=1;" vertex="1" parent="1">
          <mxGeometry x="487.5" y="890" width="125" height="40" as="geometry" />
        </mxCell>
        <mxCell id="SVlMZ-5KKAiCH5u2WM6x-22" value="View history&amp;nbsp;" style="ellipse;whiteSpace=wrap;html=1;" vertex="1" parent="1">
          <mxGeometry x="517.5" y="830" width="75" height="50" as="geometry" />
        </mxCell>
        <mxCell id="SVlMZ-5KKAiCH5u2WM6x-24" value="Comment" style="ellipse;whiteSpace=wrap;html=1;" vertex="1" parent="1">
          <mxGeometry x="190" y="870" width="80" height="50" as="geometry" />
        </mxCell>
        <mxCell id="SVlMZ-5KKAiCH5u2WM6x-32" value="" style="endArrow=none;html=1;rounded=0;" edge="1" parent="1" source="SVlMZ-5KKAiCH5u2WM6x-5" target="SVlMZ-5KKAiCH5u2WM6x-20">
          <mxGeometry width="50" height="50" relative="1" as="geometry">
            <mxPoint x="340" y="730" as="sourcePoint" />
            <mxPoint x="390" y="680" as="targetPoint" />
          </mxGeometry>
        </mxCell>
        <mxCell id="SVlMZ-5KKAiCH5u2WM6x-33" value="" style="endArrow=none;html=1;rounded=0;" edge="1" parent="1" source="SVlMZ-5KKAiCH5u2WM6x-13" target="SVlMZ-5KKAiCH5u2WM6x-1">
          <mxGeometry width="50" height="50" relative="1" as="geometry">
            <mxPoint x="370" y="760" as="sourcePoint" />
            <mxPoint x="420" y="710" as="targetPoint" />
          </mxGeometry>
        </mxCell>
        <mxCell id="SVlMZ-5KKAiCH5u2WM6x-34" value="" style="endArrow=none;html=1;rounded=0;" edge="1" parent="1" source="SVlMZ-5KKAiCH5u2WM6x-14" target="SVlMZ-5KKAiCH5u2WM6x-2">
          <mxGeometry width="50" height="50" relative="1" as="geometry">
            <mxPoint x="200" y="600" as="sourcePoint" />
            <mxPoint x="250" y="550" as="targetPoint" />
          </mxGeometry>
        </mxCell>
        <mxCell id="SVlMZ-5KKAiCH5u2WM6x-35" value="" style="endArrow=none;html=1;rounded=0;" edge="1" parent="1" source="SVlMZ-5KKAiCH5u2WM6x-5" target="SVlMZ-5KKAiCH5u2WM6x-19">
          <mxGeometry width="50" height="50" relative="1" as="geometry">
            <mxPoint x="320" y="690" as="sourcePoint" />
            <mxPoint x="370" y="640" as="targetPoint" />
          </mxGeometry>
        </mxCell>
        <mxCell id="SVlMZ-5KKAiCH5u2WM6x-36" value="" style="endArrow=none;html=1;rounded=0;" edge="1" parent="1" source="SVlMZ-5KKAiCH5u2WM6x-17" target="SVlMZ-5KKAiCH5u2WM6x-5">
          <mxGeometry width="50" height="50" relative="1" as="geometry">
            <mxPoint x="190" y="810" as="sourcePoint" />
            <mxPoint x="240" y="760" as="targetPoint" />
          </mxGeometry>
        </mxCell>
        <mxCell id="SVlMZ-5KKAiCH5u2WM6x-37" value="" style="endArrow=none;html=1;rounded=0;" edge="1" parent="1" source="SVlMZ-5KKAiCH5u2WM6x-2" target="SVlMZ-5KKAiCH5u2WM6x-17">
          <mxGeometry width="50" height="50" relative="1" as="geometry">
            <mxPoint x="210" y="920" as="sourcePoint" />
            <mxPoint x="260" y="870" as="targetPoint" />
          </mxGeometry>
        </mxCell>
        <mxCell id="SVlMZ-5KKAiCH5u2WM6x-38" value="" style="endArrow=none;html=1;rounded=0;" edge="1" parent="1" source="SVlMZ-5KKAiCH5u2WM6x-5" target="SVlMZ-5KKAiCH5u2WM6x-13">
          <mxGeometry width="50" height="50" relative="1" as="geometry">
            <mxPoint x="140" y="900" as="sourcePoint" />
            <mxPoint x="190" y="850" as="targetPoint" />
          </mxGeometry>
        </mxCell>
        <mxCell id="SVlMZ-5KKAiCH5u2WM6x-39" value="" style="endArrow=none;html=1;rounded=0;" edge="1" parent="1" source="SVlMZ-5KKAiCH5u2WM6x-20" target="SVlMZ-5KKAiCH5u2WM6x-1">
          <mxGeometry width="50" height="50" relative="1" as="geometry">
            <mxPoint x="70" y="910" as="sourcePoint" />
            <mxPoint x="120" y="860" as="targetPoint" />
          </mxGeometry>
        </mxCell>
        <mxCell id="SVlMZ-5KKAiCH5u2WM6x-40" value="" style="endArrow=none;html=1;rounded=0;" edge="1" parent="1" source="SVlMZ-5KKAiCH5u2WM6x-5" target="SVlMZ-5KKAiCH5u2WM6x-11">
          <mxGeometry width="50" height="50" relative="1" as="geometry">
            <mxPoint x="220" y="700" as="sourcePoint" />
            <mxPoint x="270" y="650" as="targetPoint" />
          </mxGeometry>
        </mxCell>
        <mxCell id="SVlMZ-5KKAiCH5u2WM6x-41" value="" style="endArrow=none;html=1;rounded=0;" edge="1" parent="1" source="SVlMZ-5KKAiCH5u2WM6x-2" target="SVlMZ-5KKAiCH5u2WM6x-11">
          <mxGeometry width="50" height="50" relative="1" as="geometry">
            <mxPoint x="250" y="690" as="sourcePoint" />
            <mxPoint x="300" y="640" as="targetPoint" />
          </mxGeometry>
        </mxCell>
        <mxCell id="SVlMZ-5KKAiCH5u2WM6x-42" value="" style="endArrow=none;html=1;rounded=0;" edge="1" parent="1" source="SVlMZ-5KKAiCH5u2WM6x-11" target="SVlMZ-5KKAiCH5u2WM6x-1">
          <mxGeometry width="50" height="50" relative="1" as="geometry">
            <mxPoint x="400" y="760" as="sourcePoint" />
            <mxPoint x="450" y="710" as="targetPoint" />
          </mxGeometry>
        </mxCell>
        <mxCell id="SVlMZ-5KKAiCH5u2WM6x-43" value="" style="endArrow=none;html=1;rounded=0;" edge="1" parent="1" source="SVlMZ-5KKAiCH5u2WM6x-1" target="SVlMZ-5KKAiCH5u2WM6x-15">
          <mxGeometry width="50" height="50" relative="1" as="geometry">
            <mxPoint x="530" y="680" as="sourcePoint" />
            <mxPoint x="580" y="630" as="targetPoint" />
          </mxGeometry>
        </mxCell>
        <mxCell id="SVlMZ-5KKAiCH5u2WM6x-45" value="" style="endArrow=none;html=1;rounded=0;" edge="1" parent="1" source="SVlMZ-5KKAiCH5u2WM6x-1" target="SVlMZ-5KKAiCH5u2WM6x-21">
          <mxGeometry width="50" height="50" relative="1" as="geometry">
            <mxPoint x="570" y="800" as="sourcePoint" />
            <mxPoint x="620" y="750" as="targetPoint" />
          </mxGeometry>
        </mxCell>
        <mxCell id="SVlMZ-5KKAiCH5u2WM6x-46" value="" style="endArrow=none;html=1;rounded=0;" edge="1" parent="1" source="SVlMZ-5KKAiCH5u2WM6x-5" target="SVlMZ-5KKAiCH5u2WM6x-21">
          <mxGeometry width="50" height="50" relative="1" as="geometry">
            <mxPoint x="370" y="770" as="sourcePoint" />
            <mxPoint x="420" y="720" as="targetPoint" />
          </mxGeometry>
        </mxCell>
        <mxCell id="SVlMZ-5KKAiCH5u2WM6x-47" value="" style="endArrow=none;html=1;rounded=0;" edge="1" parent="1" source="SVlMZ-5KKAiCH5u2WM6x-5" target="SVlMZ-5KKAiCH5u2WM6x-24">
          <mxGeometry width="50" height="50" relative="1" as="geometry">
            <mxPoint x="390" y="620" as="sourcePoint" />
            <mxPoint x="440" y="570" as="targetPoint" />
          </mxGeometry>
        </mxCell>
        <mxCell id="SVlMZ-5KKAiCH5u2WM6x-48" value="Manage comment" style="ellipse;whiteSpace=wrap;html=1;" vertex="1" parent="1">
          <mxGeometry x="810" y="765" width="100" height="50" as="geometry" />
        </mxCell>
        <mxCell id="SVlMZ-5KKAiCH5u2WM6x-49" value="" style="endArrow=none;html=1;rounded=0;" edge="1" parent="1" source="SVlMZ-5KKAiCH5u2WM6x-48" target="SVlMZ-5KKAiCH5u2WM6x-1">
          <mxGeometry width="50" height="50" relative="1" as="geometry">
            <mxPoint x="530" y="520" as="sourcePoint" />
            <mxPoint x="580" y="470" as="targetPoint" />
          </mxGeometry>
        </mxCell>
        <mxCell id="SVlMZ-5KKAiCH5u2WM6x-50" value="" style="endArrow=none;html=1;rounded=0;" edge="1" parent="1" source="SVlMZ-5KKAiCH5u2WM6x-1" target="SVlMZ-5KKAiCH5u2WM6x-16">
          <mxGeometry width="50" height="50" relative="1" as="geometry">
            <mxPoint x="480" y="490" as="sourcePoint" />
            <mxPoint x="530" y="440" as="targetPoint" />
          </mxGeometry>
        </mxCell>
        <mxCell id="SVlMZ-5KKAiCH5u2WM6x-53" value="Buy book" style="ellipse;whiteSpace=wrap;html=1;" vertex="1" parent="1">
          <mxGeometry x="20" y="740" width="80" height="45" as="geometry" />
        </mxCell>
        <mxCell id="SVlMZ-5KKAiCH5u2WM6x-54" value="" style="endArrow=none;html=1;rounded=0;" edge="1" parent="1" source="SVlMZ-5KKAiCH5u2WM6x-1" target="SVlMZ-5KKAiCH5u2WM6x-22">
          <mxGeometry width="50" height="50" relative="1" as="geometry">
            <mxPoint x="580" y="750" as="sourcePoint" />
            <mxPoint x="630" y="700" as="targetPoint" />
          </mxGeometry>
        </mxCell>
        <mxCell id="SVlMZ-5KKAiCH5u2WM6x-55" value="" style="endArrow=none;html=1;rounded=0;" edge="1" parent="1" source="SVlMZ-5KKAiCH5u2WM6x-5" target="SVlMZ-5KKAiCH5u2WM6x-22">
          <mxGeometry width="50" height="50" relative="1" as="geometry">
            <mxPoint x="610" y="760" as="sourcePoint" />
            <mxPoint x="660" y="710" as="targetPoint" />
          </mxGeometry>
        </mxCell>
        <mxCell id="SVlMZ-5KKAiCH5u2WM6x-57" value="List book&lt;div&gt;&lt;br&gt;&lt;/div&gt;" style="ellipse;whiteSpace=wrap;html=1;" vertex="1" parent="1">
          <mxGeometry x="502.5" y="720" width="95" height="40" as="geometry" />
        </mxCell>
        <mxCell id="SVlMZ-5KKAiCH5u2WM6x-58" value="" style="endArrow=none;html=1;rounded=0;" edge="1" parent="1" source="SVlMZ-5KKAiCH5u2WM6x-5" target="SVlMZ-5KKAiCH5u2WM6x-57">
          <mxGeometry width="50" height="50" relative="1" as="geometry">
            <mxPoint x="320" y="680" as="sourcePoint" />
            <mxPoint x="370" y="630" as="targetPoint" />
          </mxGeometry>
        </mxCell>
        <mxCell id="SVlMZ-5KKAiCH5u2WM6x-59" value="" style="endArrow=none;html=1;rounded=0;" edge="1" parent="1" source="SVlMZ-5KKAiCH5u2WM6x-2" target="SVlMZ-5KKAiCH5u2WM6x-57">
          <mxGeometry width="50" height="50" relative="1" as="geometry">
            <mxPoint x="370" y="670" as="sourcePoint" />
            <mxPoint x="420" y="620" as="targetPoint" />
          </mxGeometry>
        </mxCell>
        <mxCell id="SVlMZ-5KKAiCH5u2WM6x-60" value="" style="endArrow=none;html=1;rounded=0;" edge="1" parent="1" source="SVlMZ-5KKAiCH5u2WM6x-57" target="SVlMZ-5KKAiCH5u2WM6x-1">
          <mxGeometry width="50" height="50" relative="1" as="geometry">
            <mxPoint x="460" y="680" as="sourcePoint" />
            <mxPoint x="510" y="630" as="targetPoint" />
          </mxGeometry>
        </mxCell>
        <mxCell id="SVlMZ-5KKAiCH5u2WM6x-61" value="" style="endArrow=none;html=1;rounded=0;exitX=1;exitY=0.5;exitDx=0;exitDy=0;" edge="1" parent="1" source="SVlMZ-5KKAiCH5u2WM6x-17" target="SVlMZ-5KKAiCH5u2WM6x-1">
          <mxGeometry width="50" height="50" relative="1" as="geometry">
            <mxPoint x="590" y="600" as="sourcePoint" />
            <mxPoint x="640" y="550" as="targetPoint" />
          </mxGeometry>
        </mxCell>
        <mxCell id="SVlMZ-5KKAiCH5u2WM6x-65" value="" style="endArrow=classic;html=1;rounded=0;" edge="1" parent="1" source="SVlMZ-5KKAiCH5u2WM6x-19" target="SVlMZ-5KKAiCH5u2WM6x-18">
          <mxGeometry relative="1" as="geometry">
            <mxPoint x="130" y="940" as="sourcePoint" />
            <mxPoint x="230" y="940" as="targetPoint" />
          </mxGeometry>
        </mxCell>
        <mxCell id="SVlMZ-5KKAiCH5u2WM6x-66" value="Extend" style="edgeLabel;resizable=0;html=1;;align=center;verticalAlign=middle;" connectable="0" vertex="1" parent="SVlMZ-5KKAiCH5u2WM6x-65">
          <mxGeometry relative="1" as="geometry" />
        </mxCell>
        <mxCell id="SVlMZ-5KKAiCH5u2WM6x-67" value="" style="endArrow=classic;html=1;rounded=0;" edge="1" parent="1" source="SVlMZ-5KKAiCH5u2WM6x-19" target="SVlMZ-5KKAiCH5u2WM6x-53">
          <mxGeometry relative="1" as="geometry">
            <mxPoint x="226" y="678" as="sourcePoint" />
            <mxPoint x="150" y="710" as="targetPoint" />
          </mxGeometry>
        </mxCell>
        <mxCell id="SVlMZ-5KKAiCH5u2WM6x-68" value="Extend" style="edgeLabel;resizable=0;html=1;;align=center;verticalAlign=middle;" connectable="0" vertex="1" parent="SVlMZ-5KKAiCH5u2WM6x-67">
          <mxGeometry relative="1" as="geometry" />
        </mxCell>
        <mxCell id="SVlMZ-5KKAiCH5u2WM6x-70" value="" style="endArrow=none;html=1;rounded=0;exitX=1;exitY=0.5;exitDx=0;exitDy=0;" edge="1" parent="1" source="SVlMZ-5KKAiCH5u2WM6x-14" target="SVlMZ-5KKAiCH5u2WM6x-1">
          <mxGeometry width="50" height="50" relative="1" as="geometry">
            <mxPoint x="420" y="840" as="sourcePoint" />
            <mxPoint x="470" y="790" as="targetPoint" />
          </mxGeometry>
        </mxCell>
        <mxCell id="SVlMZ-5KKAiCH5u2WM6x-71" value="" style="endArrow=classic;html=1;rounded=0;" edge="1" parent="1" source="SVlMZ-5KKAiCH5u2WM6x-16" target="SVlMZ-5KKAiCH5u2WM6x-75">
          <mxGeometry relative="1" as="geometry">
            <mxPoint x="770" y="582" as="sourcePoint" />
            <mxPoint x="880" y="570" as="targetPoint" />
          </mxGeometry>
        </mxCell>
        <mxCell id="SVlMZ-5KKAiCH5u2WM6x-72" value="Extend" style="edgeLabel;resizable=0;html=1;;align=center;verticalAlign=middle;" connectable="0" vertex="1" parent="SVlMZ-5KKAiCH5u2WM6x-71">
          <mxGeometry relative="1" as="geometry" />
        </mxCell>
        <mxCell id="SVlMZ-5KKAiCH5u2WM6x-73" value="" style="endArrow=classic;html=1;rounded=0;" edge="1" parent="1" source="SVlMZ-5KKAiCH5u2WM6x-16" target="SVlMZ-5KKAiCH5u2WM6x-76">
          <mxGeometry relative="1" as="geometry">
            <mxPoint x="184" y="802" as="sourcePoint" />
            <mxPoint x="920" y="640" as="targetPoint" />
          </mxGeometry>
        </mxCell>
        <mxCell id="SVlMZ-5KKAiCH5u2WM6x-74" value="Extend" style="edgeLabel;resizable=0;html=1;;align=center;verticalAlign=middle;" connectable="0" vertex="1" parent="SVlMZ-5KKAiCH5u2WM6x-73">
          <mxGeometry relative="1" as="geometry" />
        </mxCell>
        <mxCell id="SVlMZ-5KKAiCH5u2WM6x-75" value="Add book" style="ellipse;whiteSpace=wrap;html=1;" vertex="1" parent="1">
          <mxGeometry x="860" y="560" width="100" height="60" as="geometry" />
        </mxCell>
        <mxCell id="SVlMZ-5KKAiCH5u2WM6x-76" value="Remove book" style="ellipse;whiteSpace=wrap;html=1;" vertex="1" parent="1">
          <mxGeometry x="910" y="640" width="92.5" height="60" as="geometry" />
        </mxCell>
        <mxCell id="SVlMZ-5KKAiCH5u2WM6x-77" value="" style="endArrow=classic;html=1;rounded=0;" edge="1" parent="1" target="SVlMZ-5KKAiCH5u2WM6x-81" source="SVlMZ-5KKAiCH5u2WM6x-48">
          <mxGeometry relative="1" as="geometry">
            <mxPoint x="890" y="822" as="sourcePoint" />
            <mxPoint x="936" y="735" as="targetPoint" />
          </mxGeometry>
        </mxCell>
        <mxCell id="SVlMZ-5KKAiCH5u2WM6x-78" value="Extend" style="edgeLabel;resizable=0;html=1;;align=center;verticalAlign=middle;" connectable="0" vertex="1" parent="SVlMZ-5KKAiCH5u2WM6x-77">
          <mxGeometry relative="1" as="geometry" />
        </mxCell>
        <mxCell id="SVlMZ-5KKAiCH5u2WM6x-79" value="" style="endArrow=classic;html=1;rounded=0;exitX=1;exitY=1;exitDx=0;exitDy=0;" edge="1" parent="1" target="SVlMZ-5KKAiCH5u2WM6x-82" source="SVlMZ-5KKAiCH5u2WM6x-48">
          <mxGeometry relative="1" as="geometry">
            <mxPoint x="915" y="847" as="sourcePoint" />
            <mxPoint x="976" y="805" as="targetPoint" />
          </mxGeometry>
        </mxCell>
        <mxCell id="SVlMZ-5KKAiCH5u2WM6x-80" value="Extend" style="edgeLabel;resizable=0;html=1;;align=center;verticalAlign=middle;" connectable="0" vertex="1" parent="SVlMZ-5KKAiCH5u2WM6x-79">
          <mxGeometry relative="1" as="geometry" />
        </mxCell>
        <mxCell id="SVlMZ-5KKAiCH5u2WM6x-81" value="Add comment" style="ellipse;whiteSpace=wrap;html=1;" vertex="1" parent="1">
          <mxGeometry x="960" y="720" width="100" height="60" as="geometry" />
        </mxCell>
        <mxCell id="SVlMZ-5KKAiCH5u2WM6x-82" value="Remove comment" style="ellipse;whiteSpace=wrap;html=1;" vertex="1" parent="1">
          <mxGeometry x="963.75" y="810" width="92.5" height="60" as="geometry" />
        </mxCell>
        <mxCell id="SVlMZ-5KKAiCH5u2WM6x-83" value="" style="endArrow=classic;html=1;rounded=0;" edge="1" parent="1" target="SVlMZ-5KKAiCH5u2WM6x-87" source="SVlMZ-5KKAiCH5u2WM6x-15">
          <mxGeometry relative="1" as="geometry">
            <mxPoint x="900" y="1002" as="sourcePoint" />
            <mxPoint x="946" y="915" as="targetPoint" />
          </mxGeometry>
        </mxCell>
        <mxCell id="SVlMZ-5KKAiCH5u2WM6x-84" value="Extend" style="edgeLabel;resizable=0;html=1;;align=center;verticalAlign=middle;" connectable="0" vertex="1" parent="SVlMZ-5KKAiCH5u2WM6x-83">
          <mxGeometry relative="1" as="geometry" />
        </mxCell>
        <mxCell id="SVlMZ-5KKAiCH5u2WM6x-85" value="" style="endArrow=classic;html=1;rounded=0;" edge="1" parent="1" target="SVlMZ-5KKAiCH5u2WM6x-88" source="SVlMZ-5KKAiCH5u2WM6x-15">
          <mxGeometry relative="1" as="geometry">
            <mxPoint x="925" y="1027" as="sourcePoint" />
            <mxPoint x="986" y="985" as="targetPoint" />
          </mxGeometry>
        </mxCell>
        <mxCell id="SVlMZ-5KKAiCH5u2WM6x-86" value="Extend" style="edgeLabel;resizable=0;html=1;;align=center;verticalAlign=middle;" connectable="0" vertex="1" parent="SVlMZ-5KKAiCH5u2WM6x-85">
          <mxGeometry relative="1" as="geometry" />
        </mxCell>
        <mxCell id="SVlMZ-5KKAiCH5u2WM6x-87" value="Add user" style="ellipse;whiteSpace=wrap;html=1;" vertex="1" parent="1">
          <mxGeometry x="963.75" y="880" width="100" height="60" as="geometry" />
        </mxCell>
        <mxCell id="SVlMZ-5KKAiCH5u2WM6x-88" value="Remove user" style="ellipse;whiteSpace=wrap;html=1;" vertex="1" parent="1">
          <mxGeometry x="971.25" y="945" width="92.5" height="60" as="geometry" />
        </mxCell>
      </root>
    </mxGraphModel>
  </diagram>
</mxfile>
